<svg xmlns="http://www.w3.org/2000/svg" style="display:none">
  <symbol id="icon-x" viewBox="0 0 24 24">
    <path fill="currentColor" d="M18.9 2H22l-7.6 8.7L23.3 22H16.9l-5-6.5-5.7 6.5H2.9l8.1-9.3L2 2h6.6l4.5 6 5.8-6zm-1.1 18h1.7L7.3 3.9H5.5L17.8 20z"/>
  </symbol>
  <symbol id="icon-youtube" viewBox="0 0 24 24">
    <path fill="currentColor" d="M23 12s0-3.5-.4-5.2c-.3-.9-1-1.7-2-1.9C18.9 4.5 12 4.5 12 4.5s-6.9 0-8.6.4c-1 .2-1.7 1-2 1.9C1 8.5 1 12 1 12s0 3.5.4 5.2c.3.9 1 1.7 2 1.9 1.7.4 8.6.4 8.6.4s6.9 0 8.6-.4c1-.2 1.7-1 2-1.9.4-1.7.4-5.2.4-5.2zM9.8 15.5v-7l6.2 3.5-6.2 3.5z"/>
  </symbol>
  <symbol id="icon-discord" viewBox="0 0 24 24">
    <path fill="currentColor" d="M20.3 4.4A18.9 18.9 0 0 0 15.7 3l-.3.6a13 13 0 0 1 3.9 1.5 13.7 13.7 0 0 0-14.6 0A13 13 0 0 1 8.6 3.6L8.3 3a18.9 18.9 0 0 0-4.6 1.4C1 8.6.3 12.7.6 16.8a19 19 0 0 0 5.6 2.7l.9-1.4a12.3 12.3 0 0 1-2-1c.2-.1.3-.2.5-.3a13.6 13.6 0 0 0 11.6 0l.5.3a12.3 12.3 0 0 1-2 1l.9 1.4a19 19 0 0 0 5.6-2.7c.4-4.6-.7-8.7-3.4-12.4zM9 14.2c-.9 0-1.6-.8-1.6-1.8S8.1 10.6 9 10.6s1.7.8 1.6 1.8-.7 1.8-1.6 1.8zm6 0c-.9 0-1.6-.8-1.6-1.8s.7-1.8 1.6-1.8 1.7.8 1.6 1.8-.7 1.8-1.6 1.8z"/>
  </symbol>
  <symbol id="icon-twitch" viewBox="0 0 24 24">
    <path fill="currentColor" d="M6 0 1.714 4.286v15.428h5.143V24l4.286-4.286h3.428L22.286 12V0H6Zm14.571 11.143-3.428 3.428h-3.429l-3 3v-3H6.857V1.714h13.714v9.429Z"/>
    <path fill="currentColor" d="M17.143 4.714h1.714v5.143h-1.714zm-4.715 0h1.715v5.143h-1.715z"/>
  </symbol>
  <symbol id="icon-fortune" viewBox="0 0 24 24">
    <circle cx="12" cy="10" r="7" fill="currentColor" opacity="0.18"/>
    <circle cx="12" cy="10" r="7" fill="none" stroke="currentColor" stroke-width="1.6"/>
    <path fill="currentColor" d="M7.5 19.5h9l-1.3-2.5h-6.4z"/>
    <path fill="currentColor" d="M11.3 6.2 12 4.5l.7 1.7 1.7.7-1.7.7-.7 1.7-.7-1.7-1.7-.7z"/>
  </symbol>
</svg>
